<svg version="1.1" xmlns="http://www.w3.org/2000/svg" fill-rule="evenodd" clip-rule="evenodd" height="1024" width="1024" viewBox="0 0 1024 1024"><path d="M196.913067 633.096533c18.967467-0.8448 36.593067-2.013867 54.043733-2.3552 75.6992-1.339733 150.052267 7.722667 220.7104 36.258133 34.5728 13.9264 67.9744 30.037333 98.018133 52.6976 24.672 18.628267 30.043733 41.792 18.798933 76.029867-7.048533 21.147733-21.149867 37.092267-38.9376 51.025067-41.9648 32.725333-85.937067 62.263467-136.456533 78.888533-35.413333 11.744-72.170667 20.635733-109.092267 26.346667-48.5056 7.549867-97.687467 10.907733-146.690133 15.441067-10.075733 1.0048-20.3072-0.337067-30.3808-0.337067-5.201067 0-6.542933-2.679467-6.711467-7.214933-1.346133-22.325333-2.350933-44.814933-4.3648-67.138133-2.5216-28.864-5.3696-57.736533-8.725333-86.432-4.535467-40.117333-9.568-80.059733-14.602667-120.010667-5.207467-42.1248-10.577067-84.087467-15.6096-126.2144-5.032533-41.117867-9.568-82.408533-14.9376-123.530667-6.043733-46.9888-12.7552-93.986133-19.136-140.981333-7.554133-55.554133-17.956267-110.602667-32.221867-164.814933-0.672-2.350933 1.339733-7.554133 3.355733-8.224 47.496533-19.1296 95.163733-37.76 142.660267-56.727467 15.780267-6.3808 17.12-8.228267 17.290667 11.7504 0.168533 85.092267 0.497067 170.184533 1.845333 255.2768 0.667733 44.309333 2.346667 88.622933 5.371733 132.763733 3.690667 53.877333 9.399467 107.752533 14.263467 161.627733C195.4048 629.572267 196.416 631.752533 196.913067 633.096533L196.913067 633.096533zM291.744 880.149333c43.976533-33.2288 86.944-65.794133 130.0736-98.519467-5.371733-7.722667-123.861333-54.2144-151.722667-60.424533C277.141333 773.7408 284.356267 826.1056 291.744 880.149333L291.744 880.149333zM291.744 880.149333"></path><path d="M783.3408 863.368533c-22.658133-229.102933-41.7856-460.714667-85.595733-690.9888 14.2656-1.685333 28.535467-3.6928 42.967467-4.8704 16.616533-1.5104 33.4016-2.184533 50.016-3.524267 13.9328-1.173333 19.136 2.519467 19.970133 16.110933 2.519467 36.424533 4.701867 72.842667 7.217067 109.2672 3.362133 49.173333 6.8864 98.5216 10.410667 147.6928 2.519467 35.413333 4.695467 70.9952 7.552 106.4128 3.1872 38.769067 6.711467 77.3696 10.235733 116.145067 2.519467 28.529067 4.8704 57.2288 7.720533 85.757867 3.025067 30.888533 6.378667 61.768533 9.568 92.6528 0.842667 8.896 1.845333 17.789867 2.519467 26.683733 0.330667 4.8704-2.353067 5.540267-6.8864 5.041067C834.370133 867.229867 809.696 865.3824 783.3408 863.368533L783.3408 863.368533zM783.3408 863.368533"></path><path d="M577.9136 531.547733c19.970133-2.852267 39.266133-6.037333 58.570667-8.219733 13.934933-1.678933 28.029867-1.847467 41.9584-3.189333 7.552-0.669867 12.4224 2.007467 13.5936 9.393067 3.189333 19.639467 6.551467 39.445333 8.896 59.2512 3.863467 32.893867 6.8864 65.956267 10.410667 98.852267 3.016533 28.872533 6.043733 57.5744 9.397333 86.442667 3.690667 30.877867 7.722667 61.595733 11.5776 92.309333 1.1776 9.060267 2.011733 18.299733 3.1936 28.196267-28.1984 3.522133-55.722667 7.048533-84.7616 10.907733C626.581333 780.955733 602.4128 657.4336 577.9136 531.547733L577.9136 531.547733zM577.9136 531.547733"></path><path d="M1009.755733 915.229867c-27.1872 0-53.371733 0.168533-79.554133-0.337067-2.180267 0-6.043733-3.861333-6.212267-6.205867-4.021333-41.962667-7.552-83.7504-11.2448-125.7152l-10.570667-116.8128c-3.690667-40.110933-7.217067-80.226133-10.907733-120.337067-0.168533-2.353067-0.674133-4.5376-1.173333-8.061867 9.732267-1.1712 18.961067-3.016533 28.360533-3.016533 25.348267 0 50.690133 0.667733 76.1984 1.341867 6.549333 0.1664 9.397333 4.533333 9.7344 10.570667 0.8448 12.590933 2.016 25.0112 2.016 37.595733 0.1664 59.0784-0.170667 118.325333 0.334933 177.410133 0.503467 47.157333 2.013867 94.491733 3.018667 141.655467L1009.755733 915.229867 1009.755733 915.229867zM1009.755733 915.229867"></path><path d="M633.7984 478.178133c-6.037333-48.337067-12.081067-95.502933-18.293333-144.676267 15.778133-0.168533 31.554133-0.674133 47.163733-0.674133 5.201067 0 7.552 2.858667 8.0576 8.5632 4.192 43.970133 8.5568 87.944533 13.092267 133.597867C667.5328 475.8272 650.749867 477.0048 633.7984 478.178133L633.7984 478.178133zM633.7984 478.178133"></path><path d="M950.0032 347.2704c13.429333 0 27.6992-0.170667 42.133333 0 7.214933 0.16 10.7392 3.018667 10.7392 11.573333-0.503467 40.955733-0.168533 81.9072-0.168533 122.690133l0 9.233067c-17.288533-0.836267-33.905067-1.681067-52.535467-2.513067C950.0032 441.76 950.0032 395.099733 950.0032 347.2704L950.0032 347.2704zM950.0032 347.2704"></path><path d="M574.052267 487.914667c-8.394667-46.830933-16.951467-93.320533-25.514667-140.9856 15.272533-2.350933 30.5472-4.8704 45.655467-6.715733 6.709333-0.8384 5.538133 5.038933 5.873067 8.7296 1.845333 15.776 3.1872 31.3856 4.864 47.159467 2.690133 24.674133 5.371733 49.346133 7.889067 73.851733 0.337067 3.189333 0 6.542933 0 10.0672C600.066133 482.711467 587.306667 485.226667 574.052267 487.914667L574.052267 487.914667zM574.052267 487.914667"></path><path d="M880.5248 347.767467c14.2656 0 28.526933 0.168533 42.628267-0.168533 6.3744-0.168533 8.725333 1.179733 8.558933 8.565333-0.4992 19.6352 0.1664 39.272533 0.334933 59.076267 0.168533 24.337067 0 48.842667 0 73.0112-14.432 1.508267-27.018667 2.6816-40.6144 4.192C887.908267 444.945067 884.2176 397.6128 880.5248 347.767467L880.5248 347.767467zM880.5248 347.767467"></path></svg>